<svg width="168" height="168" viewBox="0 0 168 168" fill="none" xmlns="http://www.w3.org/2000/svg">
<g clip-path="url(#clip0_32_26)">
<mask id="mask0_32_26" style="mask-type:luminance" maskUnits="userSpaceOnUse" x="0" y="75" width="168" height="168">
<path d="M0 75H168V243H0V75Z" fill="white"/>
</mask>
<g mask="url(#mask0_32_26)">
<g filter="url(#filter0_i_32_26)">
<path d="M-42.7841 221.901C-50.913 214.444 -57.4934 205.459 -62.1497 195.458C-66.8061 185.458 -69.4471 174.639 -69.9221 163.618C-70.3971 152.597 -68.6967 141.59 -64.9179 131.226C-61.1392 120.863 -55.3562 111.345 -47.8991 103.216C-40.442 95.087 -31.4568 88.5066 -21.4566 83.8503C-11.4563 79.1939 -0.636902 76.5529 10.384 76.0779C21.4049 75.6029 32.4115 77.3033 42.7753 81.0821C53.139 84.8608 62.657 90.6438 70.7859 98.1009C87.2028 113.161 96.9646 134.126 97.9238 156.384C98.8831 178.642 90.9612 200.369 75.9009 216.786C60.8406 233.203 39.8755 242.965 17.6177 243.924C-4.64003 244.883 -26.3672 236.961 -42.7841 221.901Z" fill="url(#paint0_radial_32_26)"/>
</g>
<g opacity="0.1">
<path opacity="0.1" d="M7.97593 136.321L7.94592 137.501L16.4459 169.261L16.8559 169.491L29.2659 156.831L7.96593 136.321H7.97593Z" fill="white" fill-opacity="0.68"/>
<path opacity="0.1" d="M7.97588 136.321L-0.224121 164.721L16.8559 169.491L12.7259 154.081L7.97588 136.321Z" fill="white" fill-opacity="0.33"/>
<path opacity="0.1" d="M17.6058 172.281L17.4858 172.551L20.5158 183.871L20.8358 184.351L30.0258 159.621L17.5958 172.281H17.6058Z" fill="white" fill-opacity="0.68"/>
<path opacity="0.1" d="M20.8359 184.351L17.6059 172.281L0.535889 167.521L20.8359 184.351Z" fill="white" fill-opacity="0.33"/>
<path opacity="0.1" d="M16.8558 169.491L29.2658 156.831L12.7258 154.081L16.8558 169.491Z" fill="white"/>
<path opacity="0.1" d="M-0.214111 164.731L16.8559 169.491L12.7259 154.081L-0.204109 164.731H-0.214111Z" fill="white" fill-opacity="0.68"/>
</g>
</g>
<g filter="url(#filter1_f_32_26)">
<path d="M120.9 160.526C117.544 143.213 102.306 130.148 84.0053 130.148C65.7046 130.148 50.4668 143.213 47.1108 160.526C46.3831 164.262 49.3373 167.726 53.1386 167.726H114.861C118.673 167.726 121.617 164.273 120.889 160.526H120.9Z" fill="url(#paint1_linear_32_26)"/>
<path d="M84.0052 121.318C94.3103 121.318 102.664 112.964 102.664 102.659C102.664 92.3539 94.3103 84 84.0052 84C73.7001 84 65.3462 92.3539 65.3462 102.659C65.3462 112.964 73.7001 121.318 84.0052 121.318Z" fill="url(#paint2_linear_32_26)"/>
</g>
</g>
<defs>
<filter id="filter0_i_32_26" x="-70" y="76" width="168.002" height="168.002" filterUnits="userSpaceOnUse" color-interpolation-filters="sRGB">
<feFlood flood-opacity="0" result="BackgroundImageFix"/>
<feBlend mode="normal" in="SourceGraphic" in2="BackgroundImageFix" result="shape"/>
<feColorMatrix in="SourceAlpha" type="matrix" values="0 0 0 0 0 0 0 0 0 0 0 0 0 0 0 0 0 0 127 0" result="hardAlpha"/>
<feOffset/>
<feGaussianBlur stdDeviation="23"/>
<feComposite in2="hardAlpha" operator="arithmetic" k2="-1" k3="1"/>
<feColorMatrix type="matrix" values="0 0 0 0 0.917667 0 0 0 0 0.683333 0 0 0 0 1 0 0 0 0.42 0"/>
<feBlend mode="normal" in2="shape" result="effect1_innerShadow_32_26"/>
</filter>
<filter id="filter1_f_32_26" x="-41" y="-4" width="250" height="259.727" filterUnits="userSpaceOnUse" color-interpolation-filters="sRGB">
<feFlood flood-opacity="0" result="BackgroundImageFix"/>
<feBlend mode="normal" in="SourceGraphic" in2="BackgroundImageFix" result="shape"/>
<feGaussianBlur stdDeviation="44" result="effect1_foregroundBlur_32_26"/>
</filter>
<radialGradient id="paint0_radial_32_26" cx="0" cy="0" r="1" gradientUnits="userSpaceOnUse" gradientTransform="translate(-55.2334 161.462) rotate(-1.4) scale(165.287 178.67)">
<stop stop-color="#03624C"/>
<stop offset="0.68" stop-color="#2CC295"/>
<stop offset="0.93" stop-color="#F9FDFF"/>
</radialGradient>
<linearGradient id="paint1_linear_32_26" x1="84.0053" y1="188.406" x2="84.0053" y2="75.4195" gradientUnits="userSpaceOnUse">
<stop stop-color="#00DF81"/>
<stop offset="1" stop-color="#F2FFF6"/>
</linearGradient>
<linearGradient id="paint2_linear_32_26" x1="84.0052" y1="-406.098" x2="84.0052" y2="75.4199" gradientUnits="userSpaceOnUse">
<stop stop-color="#2CC295"/>
<stop offset="1" stop-color="#095554"/>
</linearGradient>
<clipPath id="clip0_32_26">
<rect width="168" height="168" fill="white"/>
</clipPath>
</defs>
</svg>
